<svg width="60" height="60" viewBox="0 0 60 60" fill="none" xmlns="http://www.w3.org/2000/svg">
<path d="M29.936 51.6525C30.3748 51.6524 30.7998 51.8061 31.1369 52.0871C31.4741 52.368 31.702 52.7583 31.781 53.19L31.811 53.5275V58.08C31.8118 58.5485 31.6372 59.0004 31.3215 59.3467C31.0059 59.6929 30.572 59.9084 30.1054 59.9508C29.6387 59.9931 29.1732 59.8592 28.8003 59.5754C28.4275 59.2916 28.1744 58.8785 28.091 58.4175L28.061 58.08V53.5275C28.061 53.0302 28.2585 52.5533 28.6101 52.2017C28.9618 51.85 29.4387 51.6525 29.936 51.6525ZM47.9285 45.2475L51.146 48.465C51.4875 48.8186 51.6765 49.2923 51.6722 49.7839C51.6679 50.2755 51.4708 50.7458 51.1231 51.0934C50.7755 51.4411 50.3052 51.6382 49.8136 51.6425C49.322 51.6468 48.8483 51.4578 48.4947 51.1162L45.2772 47.8988C45.0981 47.7258 44.9553 47.5189 44.857 47.2901C44.7588 47.0614 44.707 46.8153 44.7049 46.5664C44.7027 46.3174 44.7501 46.0705 44.8444 45.8401C44.9387 45.6097 45.0779 45.4003 45.254 45.2243C45.43 45.0482 45.6394 44.909 45.8698 44.8147C46.1002 44.7204 46.3471 44.673 46.5961 44.6752C46.845 44.6773 47.0911 44.729 47.3198 44.8273C47.5486 44.9256 47.7555 45.0684 47.9285 45.2475ZM14.5985 45.2475C14.95 45.5991 15.1474 46.0759 15.1474 46.5731C15.1474 47.0703 14.95 47.5471 14.5985 47.8988L11.3772 51.1162C11.2042 51.2953 10.9973 51.4382 10.7686 51.5364C10.5398 51.6347 10.2938 51.6864 10.0448 51.6886C9.79587 51.6908 9.54897 51.6433 9.31854 51.549C9.08811 51.4548 8.87876 51.3155 8.70271 51.1395C8.52667 50.9634 8.38744 50.7541 8.29317 50.5237C8.19889 50.2932 8.15145 50.0463 8.15361 49.7974C8.15578 49.5484 8.2075 49.3024 8.30577 49.0736C8.40403 48.8449 8.54687 48.638 8.72596 48.465L11.9472 45.2475C12.2988 44.896 12.7756 44.6985 13.2728 44.6985C13.77 44.6985 14.2468 44.896 14.5985 45.2475ZM29.9735 13.1625C34.4306 13.1625 38.7052 14.9331 41.8568 18.0848C45.0085 21.2364 46.7791 25.511 46.7791 29.9681C46.7791 34.4253 45.0085 38.6998 41.8568 41.8515C38.7052 45.0032 34.4306 46.7737 29.9735 46.7738C25.5163 46.7737 21.2418 45.0032 18.0901 41.8515C14.9384 38.6998 13.1678 34.4253 13.1678 29.9681C13.1678 25.511 14.9384 21.2364 18.0901 18.0848C21.2418 14.9331 25.5163 13.1625 29.9735 13.1625ZM29.9735 16.9125C28.259 16.9125 26.5613 17.2502 24.9773 17.9063C23.3933 18.5624 21.9541 19.5241 20.7417 20.7364C19.5294 21.9487 18.5677 23.388 17.9116 24.972C17.2555 26.5559 16.9178 28.2536 16.9178 29.9681C16.9178 31.6826 17.2555 33.3803 17.9116 34.9643C18.5677 36.5483 19.5294 37.9875 20.7417 39.1998C21.9541 40.4122 23.3933 41.3738 24.9773 42.0299C26.5613 42.6861 28.259 43.0238 29.9735 43.0238C33.436 43.0238 36.7568 41.6483 39.2052 39.1998C41.6536 36.7514 43.0291 33.4307 43.0291 29.9681C43.0291 26.5056 41.6536 23.1848 39.2052 20.7364C36.7568 18.288 33.436 16.9125 29.9735 16.9125ZM58.0197 28.1625C58.4848 28.1665 58.9318 28.3433 59.2739 28.6585C59.6159 28.9736 59.8287 29.4046 59.8707 29.8678C59.9128 30.3311 59.7812 30.7934 59.5015 31.165C59.2218 31.5366 58.814 31.791 58.3572 31.8787L58.0197 31.9087H53.4635C52.9949 31.9096 52.543 31.735 52.1968 31.4193C51.8505 31.1037 51.635 30.6698 51.5927 30.2032C51.5503 29.7365 51.6842 29.271 51.968 28.8981C52.2518 28.5253 52.6649 28.2722 53.126 28.1888L53.4635 28.1588H58.016L58.0197 28.1625ZM6.43095 28.0725C6.8995 28.0716 7.35139 28.2462 7.69764 28.5619C8.04389 28.8776 8.2594 29.3115 8.30174 29.7781C8.34407 30.2447 8.21017 30.7103 7.92638 31.0831C7.6426 31.456 7.22951 31.709 6.76846 31.7925L6.43095 31.8225H1.87846C1.40991 31.8234 0.958017 31.6488 0.611768 31.3331C0.26552 31.0174 0.0500089 30.5836 0.00767335 30.1169C-0.0346622 29.6503 0.0992466 29.1847 0.38303 28.8119C0.666813 28.4391 1.0799 28.186 1.54096 28.1025L1.87846 28.0725H6.43095ZM11.1185 8.625L11.381 8.8425L14.5985 12.06C14.9306 12.3907 15.1269 12.8338 15.1486 13.3021C15.1703 13.7703 15.0158 14.2297 14.7155 14.5897C14.4153 14.9497 13.9912 15.1841 13.5266 15.2469C13.0621 15.3097 12.5909 15.1962 12.206 14.9288L11.9435 14.7113L8.72596 11.4938C8.39377 11.163 8.19749 10.7199 8.17582 10.2517C8.15415 9.78342 8.30864 9.32405 8.60886 8.96406C8.90908 8.60408 9.33325 8.36961 9.79777 8.30685C10.2623 8.24409 10.7335 8.35759 11.1185 8.625ZM51.146 8.8425C51.4556 9.15251 51.6469 9.56118 51.6866 9.99755C51.7264 10.4339 51.612 10.8704 51.3635 11.2313L51.146 11.4938L47.9285 14.7113C47.5977 15.0434 47.1546 15.2397 46.6864 15.2614C46.2181 15.2831 45.7588 15.1286 45.3988 14.8283C45.0388 14.5281 44.8043 14.104 44.7416 13.6394C44.6788 13.1749 44.7923 12.7037 45.0597 12.3188L45.2772 12.0562L48.4947 8.8425C48.8463 8.49099 49.3231 8.29353 49.8203 8.29353C50.3175 8.29353 50.7943 8.49099 51.146 8.8425ZM29.951 1.04289e-07C30.3898 -0.000146198 30.8148 0.153643 31.1519 0.434585C31.4891 0.715527 31.717 1.10582 31.796 1.5375L31.826 1.875V6.4275C31.8268 6.89605 31.6522 7.34794 31.3365 7.69419C31.0209 8.04044 30.587 8.25595 30.1204 8.29828C29.6537 8.34062 29.1882 8.20671 28.8153 7.92293C28.4425 7.63914 28.1894 7.22605 28.106 6.765L28.076 6.4275V1.875C28.076 1.37772 28.2735 0.900806 28.6251 0.549175C28.9768 0.197545 29.4537 1.04289e-07 29.951 1.04289e-07Z" fill="white"/>
</svg>
