<svg width="60" height="60" viewBox="0 0 60 60" fill="none" xmlns="http://www.w3.org/2000/svg">
<path d="M33.6493 14.9609C42.893 14.9609 48.1355 20.8596 48.8968 27.9884H49.1293C55.0768 27.9884 59.8993 32.6271 59.8993 38.3496C59.8993 44.0721 55.0768 48.7109 49.1293 48.7109H46.5268L46.463 48.8646L40.8943 59.0046C40.6708 59.4165 40.3011 59.7297 39.8581 59.8827C39.4151 60.0356 38.9309 60.017 38.5009 59.8307C38.0709 59.6444 37.7263 59.3038 37.5349 58.8761C37.3434 58.4483 37.3192 57.9644 37.4668 57.5196L37.6018 57.2121L42.2743 48.7109H35.3218L35.2543 48.8646L29.6855 59.0046C29.462 59.4165 29.0924 59.7297 28.6494 59.8827C28.2064 60.0356 27.7222 60.017 27.2922 59.8307C26.8622 59.6444 26.5175 59.3038 26.3261 58.8761C26.1347 58.4483 26.1104 57.9644 26.2581 57.5196L26.393 57.2121L31.0693 48.7109H24.0493L18.4393 59.0046C18.2158 59.4165 17.8461 59.7297 17.4031 59.8827C16.9601 60.0356 16.4759 60.017 16.0459 59.8307C15.6159 59.6444 15.2713 59.3038 15.0799 58.8761C14.8884 58.4483 14.8642 57.9644 15.0118 57.5196L15.1468 57.2121L19.7818 48.7109H18.1693C12.2218 48.7109 7.3993 44.0721 7.3993 38.3496C7.3993 32.6271 12.2218 27.9884 18.1693 27.9884H18.4018C19.1705 20.8109 24.4056 14.9609 33.6493 14.9609ZM33.6493 18.7109C27.4618 18.7109 22.073 23.4734 22.073 30.0546C22.073 31.0971 21.1206 31.9146 20.0293 31.9146H17.9668C14.2018 31.9109 11.1493 34.8359 11.1493 38.4359C11.1493 42.0359 14.2018 44.9609 17.9668 44.9609H49.3318C53.0968 44.9609 56.1493 42.0359 56.1493 38.4359C56.1493 34.8359 53.0968 31.9109 49.3318 31.9109H47.2693C46.1818 31.9146 45.2255 31.0971 45.2255 30.0546C45.2255 23.3909 39.8368 18.7109 33.6493 18.7109ZM6.66055 25.0859C6.80503 25.5012 6.79893 25.9541 6.64333 26.3654C6.48772 26.7767 6.19251 27.1202 5.8093 27.3359L5.49805 27.4709L2.4943 28.5059C2.05102 28.661 1.56567 28.6441 1.13424 28.4586C0.702813 28.273 0.356719 27.9323 0.164409 27.5039C-0.0279005 27.0754 -0.0524215 26.5904 0.0956954 26.1447C0.243812 25.6991 0.553781 25.3252 0.964298 25.0971L1.2718 24.9621L4.2793 23.9271C4.74924 23.7658 5.26398 23.7977 5.71046 24.0156C6.15693 24.2336 6.49865 24.6199 6.66055 25.0896V25.0859ZM25.8493 9.33585C27.098 9.94335 28.1968 10.7346 29.1268 11.6609C27.6043 11.9721 26.1793 12.4484 24.8668 13.0671C23.1731 12.0477 21.1786 11.6466 19.2225 11.9322C17.2664 12.2177 15.4698 13.1723 14.1382 14.6334C12.8067 16.0944 12.0226 17.9717 11.9193 19.9458C11.816 21.9199 12.4 23.8688 13.5718 25.4609C12.3343 25.8284 11.1718 26.3646 10.1031 27.0359C8.65223 24.7771 7.9802 22.1058 8.1895 19.4295C8.3988 16.7531 9.47794 14.2187 11.2623 12.213C13.0466 10.2073 15.4381 8.84043 18.0718 8.32094C20.7056 7.80145 23.437 8.15789 25.8493 9.33585ZM3.33805 9.97335L3.6493 10.0934L6.5068 11.4846C6.92805 11.6894 7.2574 12.0444 7.43004 12.4798C7.60268 12.9152 7.6061 13.3995 7.43963 13.8373C7.27316 14.2751 6.94886 14.6348 6.53054 14.8455C6.11222 15.0562 5.63019 15.1027 5.1793 14.9759L4.8643 14.8559L2.0068 13.4646C1.58555 13.2598 1.25619 12.9048 1.08355 12.4694C0.910916 12.034 0.907496 11.5497 1.07397 11.1119C1.24044 10.6741 1.56474 10.3144 1.98306 10.1037C2.40138 9.89302 2.88341 9.84651 3.3343 9.97335H3.33805ZM29.8618 1.0671C30.2566 1.25974 30.5713 1.5849 30.7508 1.98583C30.9304 2.38676 30.9635 2.83802 30.8443 3.26085L30.7243 3.57585L29.333 6.43335C29.1283 6.8546 28.7732 7.18396 28.3378 7.3566C27.9024 7.52923 27.4182 7.53266 26.9803 7.36618C26.5425 7.19971 26.1829 6.87541 25.9722 6.45709C25.7615 6.03877 25.715 5.55674 25.8418 5.10585L25.9618 4.7871L27.3568 1.9296C27.5749 1.48336 27.9612 1.1419 28.4309 0.980193C28.9005 0.818486 29.4152 0.849743 29.8618 1.0671ZM15.6493 0.947102L15.788 1.2546L16.823 4.2621C16.9752 4.70481 16.9562 5.18842 16.7699 5.61785C16.5836 6.04729 16.2433 6.39149 15.8161 6.58279C15.3888 6.77409 14.9055 6.79865 14.461 6.65164C14.0166 6.50463 13.6432 6.19669 13.4143 5.78835L13.2793 5.48085L12.2443 2.4771C12.0945 2.03544 12.1147 1.55382 12.301 1.12625C12.4872 0.698686 12.8261 0.355871 13.2515 0.164725C13.6769 -0.02642 14.1583 -0.0521747 14.6016 0.0924889C15.045 0.237152 15.4185 0.54185 15.6493 0.947102Z" fill="white"/>
</svg>
