<svg width="63" height="54" viewBox="0 0 63 54" fill="none" xmlns="http://www.w3.org/2000/svg">
<path d="M34.3826 13.2568C44.2842 13.2568 49.9014 20.2088 50.717 28.6063H50.967C57.3405 28.6063 62.5061 34.0731 62.5061 40.8146C62.5061 47.5577 57.3405 53.0228 50.967 53.0228H17.7967C11.4264 53.0228 6.26076 47.5577 6.26076 40.8146C6.26076 34.0731 11.4264 28.6063 17.7983 28.6063H18.0483C18.8701 20.1541 24.4826 13.2568 34.3842 13.2568H34.3826ZM34.3826 17.3925C27.7248 17.3925 21.9217 23.108 21.9217 31.0015C21.9217 32.253 20.8951 33.236 19.7217 33.236H17.503C13.4483 33.236 10.1639 36.7385 10.1639 41.0599C10.1639 45.3829 13.4498 48.8871 17.503 48.8871H51.2623C55.3154 48.8871 58.6014 45.3829 58.6014 41.0615C58.6014 36.7385 55.3154 33.2343 51.2623 33.2343H49.0436C47.8686 33.2343 46.8436 32.253 46.8436 31.0032C46.8436 23.0069 41.0405 17.3942 34.3826 17.3942V17.3925ZM7.36701 27.005C7.55073 27.4766 7.56312 28.0037 7.40179 28.4843C7.24046 28.965 6.91687 29.3652 6.49357 29.6075L6.31389 29.6986L2.70295 31.2916C2.24186 31.4998 1.72274 31.511 1.2541 31.3226C0.785473 31.1342 0.403607 30.761 0.188332 30.2809C-0.026943 29.8008 -0.0589627 29.2511 0.0989668 28.7465C0.256896 28.242 0.59255 27.8217 1.03576 27.5736L1.21545 27.4824L4.82639 25.8894C5.30255 25.6803 5.8375 25.6804 6.31363 25.8896C6.78976 26.0988 7.16809 26.5 7.36545 27.005H7.36701ZM27.6795 11.0224L27.5826 11.0555C26.1373 11.5561 24.7951 12.2191 23.567 13.0281C21.8889 12.2748 20.0286 12.1069 18.2547 12.5485C16.4807 12.9902 14.885 14.0186 13.6981 15.4852C12.5111 16.9518 11.7942 18.7807 11.651 20.7077C11.5078 22.6348 11.9457 24.5603 12.9014 26.2061C11.7251 26.6517 10.608 27.2568 9.57795 28.0062C8.14034 25.3943 7.60135 22.3342 8.05292 19.3477C8.50449 16.3613 9.91865 13.6336 12.0542 11.6297C14.1898 9.62583 16.9145 8.46995 19.7636 8.3592C22.6127 8.24844 25.4099 9.18967 27.6779 11.0224H27.6795ZM2.47795 11.3207L2.67639 11.397L6.29982 13.0364C7.2842 13.4773 7.75607 14.6857 7.35451 15.7366C6.97951 16.7162 5.97482 17.2119 5.04201 16.9135L4.84514 16.8389L1.22014 15.1995C0.746606 14.9849 0.371168 14.5821 0.174304 14.0773C-0.0225593 13.5726 -0.025177 13.0061 0.167011 12.4993C0.542011 11.5196 1.54514 11.024 2.47795 11.3224V11.3207ZM13.9904 1.08831L14.0764 1.27893L15.5764 5.10138C15.7646 5.59135 15.7689 6.13914 15.5886 6.63243C15.4083 7.12572 15.0569 7.52714 14.6065 7.75438C14.1561 7.98163 13.6408 8.01748 13.1663 7.85459C12.6918 7.6917 12.294 7.34241 12.0545 6.87833L11.9686 6.68771L10.4686 2.86526C10.2804 2.37529 10.276 1.8275 10.4563 1.33421C10.6367 0.840917 10.9881 0.439501 11.4385 0.212259C11.8888 -0.0149842 12.4041 -0.050837 12.8786 0.112052C13.3531 0.274941 13.7509 0.62423 13.9904 1.08831ZM28.1295 0.160046C29.0686 0.57279 29.5483 1.66847 29.2701 2.67961L29.1983 2.8951L27.6483 6.66782C27.4519 7.15804 27.087 7.55053 26.6276 7.76549C26.1682 7.98045 25.6489 8.00175 25.1753 7.82504C24.7017 7.64833 24.3092 7.28689 24.0778 6.8142C23.8464 6.34152 23.7934 5.79308 23.9295 5.2804L24.0014 5.06491L25.5483 1.29219C25.6477 1.03804 25.7933 0.807159 25.9768 0.612718C26.1603 0.418277 26.3782 0.264089 26.6179 0.158958C26.8575 0.0538277 27.1144 -0.000185986 27.3738 4.81151e-07C27.6332 0.000186949 27.89 0.0545707 28.1295 0.160046Z" fill="white"/>
</svg>
